<svg xmlns="http://www.w3.org/2000/svg" display="none">

<symbol id="phone" viewBox="0 0 241.73 241.73">
<g>
	<path d="M234.771,181.213l-34.938-34.953c-4.692-4.668-10.975-7.24-17.689-7.24
		c-6.987,0-13.584,2.751-18.572,7.742l-13.6,13.597c-10.568-5.874-24.614-13.953-39.197-28.536
		c-14.566-14.571-22.646-28.576-28.55-39.201l13.613-13.603c10.121-10.142,10.328-26.413,0.463-36.269L61.37,7.818
		c-4.679-4.692-10.962-7.276-17.693-7.276c-6.831,0-13.293,2.63-18.252,7.417c-3,2.416-18.055,15.706-23.666,43.114
		c-7.856,38.363,10.194,75.274,62.302,127.403c58.209,58.191,107.902,62.714,121.746,62.714c2.882,0,4.621-0.178,5.085-0.232
		c27.147-3.182,36.867-15.238,43.964-24.041C244.052,205.508,244.02,190.496,234.771,181.213z M223.178,207.502
		c-6.671,8.274-12.971,16.088-34.031,18.557c-0.011,0.001-1.163,0.13-3.34,0.13c-12.386,0-57.008-4.206-111.139-58.32
		C26.615,119.796,9.749,86.829,16.454,54.081c4.894-23.906,17.887-34.067,18.392-34.453l0.448-0.331l0.393-0.394
		c2.169-2.167,5.006-3.361,7.989-3.361c2.716,0,5.228,1.018,7.08,2.876l34.939,34.94c4.02,4.016,3.806,10.774-0.471,15.06
		L69.829,83.8l-0.253,0.265c-4.012,4.419-3.54,10.391-1.33,14.28c6.377,11.508,15.112,27.269,31.92,44.082
		c16.752,16.752,32.49,25.48,43.966,31.845c1.149,0.645,3.521,1.727,6.49,1.727c3.506,0,6.725-1.484,9.108-4.189l14.448-14.444
		c2.157-2.158,4.985-3.347,7.964-3.347c2.722,0,5.247,1.021,7.095,2.859l34.915,34.93
		C228.587,196.259,226.756,203.064,223.178,207.502z"/>
	<path d="M146.447,37.293c12.887,1.483,28.061,9.289,38.657,19.886c10.695,10.695,18.52,26.023,19.933,39.05
		c0.417,3.843,3.667,6.691,7.447,6.691c0.27,0,0.544-0.015,0.818-0.044c4.118-0.447,7.094-4.147,6.647-8.265
		c-1.787-16.467-11.075-34.874-24.238-48.038c-13.04-13.041-31.259-22.306-47.549-24.181c-4.113-0.477-7.834,2.479-8.308,6.593
		C139.38,33.099,142.331,36.819,146.447,37.293z"/>
	<path d="M139.44,68.711c6.97,0.803,16.616,5.973,22.935,12.292c6.373,6.374,11.553,16.112,12.316,23.157
		c0.417,3.844,3.667,6.692,7.447,6.692c0.27,0,0.543-0.015,0.817-0.044c4.118-0.447,7.095-4.147,6.648-8.265
		c-1.304-12.028-9.289-24.813-16.623-32.147c-7.268-7.269-19.928-15.216-31.825-16.587c-4.119-0.479-7.835,2.478-8.309,6.592
		C132.373,64.516,135.325,68.237,139.44,68.711z"/>
</g>
</symbol>

<symbol id="star" viewBox="0 0 512.002 512.002">
<g>
	<g>
		<path d="M511.267,197.258c-1.764-5.431-6.457-9.389-12.107-10.209l-158.723-23.065L269.452,20.157
			c-2.526-5.12-7.741-8.361-13.45-8.361c-5.71,0-10.924,3.241-13.451,8.361l-70.988,143.827l-158.72,23.065
			c-5.649,0.82-10.344,4.778-12.108,10.208c-1.765,5.431-0.293,11.392,3.796,15.377l114.848,111.954L92.271,482.671
			c-0.966,5.628,1.348,11.314,5.967,14.671c2.613,1.898,5.708,2.864,8.818,2.864c2.388,0,4.784-0.569,6.978-1.723l141.967-74.638
			l141.961,74.637c5.055,2.657,11.178,2.215,15.797-1.141c4.619-3.356,6.934-9.044,5.969-14.672l-27.117-158.081l114.861-111.955
			C511.56,208.649,513.033,202.688,511.267,197.258z"/>
	</g>
</g>
</symbol>

<symbol id="basket" viewBox="0 0 489 489">
<g>
	<path d="M440.1,422.7l-28-315.3c-0.6-7-6.5-12.3-13.4-12.3h-57.6C340.3,42.5,297.3,0,244.5,0s-95.8,42.5-96.6,95.1H90.3
		c-7,0-12.8,5.3-13.4,12.3l-28,315.3c0,0.4-0.1,0.8-0.1,1.2c0,35.9,32.9,65.1,73.4,65.1h244.6c40.5,0,73.4-29.2,73.4-65.1
		C440.2,423.5,440.2,423.1,440.1,422.7z M244.5,27c37.9,0,68.8,30.4,69.6,68.1H174.9C175.7,57.4,206.6,27,244.5,27z M366.8,462
		H122.2c-25.4,0-46-16.8-46.4-37.5l26.8-302.3h45.2v41c0,7.5,6,13.5,13.5,13.5s13.5-6,13.5-13.5v-41h139.3v41
		c0,7.5,6,13.5,13.5,13.5s13.5-6,13.5-13.5v-41h45.2l26.9,302.3C412.8,445.2,392.1,462,366.8,462z"/>
</g>
</symbol>

<symbol id="instagram" viewBox="0 0 512.00096 512.00096"><path d="m373.40625 0h-234.8125c-76.421875 0-138.59375 62.171875-138.59375 138.59375v234.816406c0 76.417969 62.171875 138.589844 138.59375 138.589844h234.816406c76.417969 0 138.589844-62.171875 138.589844-138.589844v-234.816406c0-76.421875-62.171875-138.59375-138.59375-138.59375zm108.578125 373.410156c0 59.867188-48.707031 108.574219-108.578125 108.574219h-234.8125c-59.871094 0-108.578125-48.707031-108.578125-108.574219v-234.816406c0-59.871094 48.707031-108.578125 108.578125-108.578125h234.816406c59.867188 0 108.574219 48.707031 108.574219 108.578125zm0 0"/><path d="m256 116.003906c-77.195312 0-139.996094 62.800782-139.996094 139.996094s62.800782 139.996094 139.996094 139.996094 139.996094-62.800782 139.996094-139.996094-62.800782-139.996094-139.996094-139.996094zm0 249.976563c-60.640625 0-109.980469-49.335938-109.980469-109.980469 0-60.640625 49.339844-109.980469 109.980469-109.980469 60.644531 0 109.980469 49.339844 109.980469 109.980469 0 60.644531-49.335938 109.980469-109.980469 109.980469zm0 0"/><path d="m399.34375 66.285156c-22.8125 0-41.367188 18.558594-41.367188 41.367188 0 22.8125 18.554688 41.371094 41.367188 41.371094s41.371094-18.558594 41.371094-41.371094-18.558594-41.367188-41.371094-41.367188zm0 52.71875c-6.257812 0-11.351562-5.09375-11.351562-11.351562 0-6.261719 5.09375-11.351563 11.351562-11.351563 6.261719 0 11.355469 5.089844 11.355469 11.351563 0 6.257812-5.09375 11.351562-11.355469 11.351562zm0 0"/></symbol>

<symbol id="facebook" viewBox="-110 1 511 511.99996"><path d="m180 512h-81.992188c-13.695312 0-24.835937-11.140625-24.835937-24.835938v-184.9375h-47.835937c-13.695313 0-24.835938-11.144531-24.835938-24.835937v-79.246094c0-13.695312 11.140625-24.835937 24.835938-24.835937h47.835937v-39.683594c0-39.347656 12.355469-72.824219 35.726563-96.804688 23.476562-24.089843 56.285156-36.820312 94.878906-36.820312l62.53125.101562c13.671875.023438 24.792968 11.164063 24.792968 24.835938v73.578125c0 13.695313-11.136718 24.835937-24.828124 24.835937l-42.101563.015626c-12.839844 0-16.109375 2.574218-16.808594 3.363281-1.152343 1.308593-2.523437 5.007812-2.523437 15.222656v31.351563h58.269531c4.386719 0 8.636719 1.082031 12.289063 3.121093 7.878906 4.402344 12.777343 12.726563 12.777343 21.722657l-.03125 79.246093c0 13.6875-11.140625 24.828125-24.835937 24.828125h-58.46875v184.941406c0 13.695313-11.144532 24.835938-24.839844 24.835938zm-76.8125-30.015625h71.632812v-193.195313c0-9.144531 7.441407-16.582031 16.582032-16.582031h66.726562l.027344-68.882812h-66.757812c-9.140626 0-16.578126-7.4375-16.578126-16.582031v-44.789063c0-11.726563 1.191407-25.0625 10.042969-35.085937 10.695313-12.117188 27.550781-13.515626 39.300781-13.515626l36.921876-.015624v-63.226563l-57.332032-.09375c-62.023437 0-100.566406 39.703125-100.566406 103.609375v53.117188c0 9.140624-7.4375 16.582031-16.578125 16.582031h-56.09375v68.882812h56.09375c9.140625 0 16.578125 7.4375 16.578125 16.582031zm163.0625-451.867187h.003906zm0 0"/></symbol>

<symbol id="mail" viewBox="0 0 483.3 483.3">
<g>
	<g>
		<path d="M424.3,57.75H59.1c-32.6,0-59.1,26.5-59.1,59.1v249.6c0,32.6,26.5,59.1,59.1,59.1h365.1c32.6,0,59.1-26.5,59.1-59.1
			v-249.5C483.4,84.35,456.9,57.75,424.3,57.75z M456.4,366.45c0,17.7-14.4,32.1-32.1,32.1H59.1c-17.7,0-32.1-14.4-32.1-32.1v-249.5
			c0-17.7,14.4-32.1,32.1-32.1h365.1c17.7,0,32.1,14.4,32.1,32.1v249.5H456.4z"/>
		<path d="M304.8,238.55l118.2-106c5.5-5,6-13.5,1-19.1c-5-5.5-13.5-6-19.1-1l-163,146.3l-31.8-28.4c-0.1-0.1-0.2-0.2-0.2-0.3
			c-0.7-0.7-1.4-1.3-2.2-1.9L78.3,112.35c-5.6-5-14.1-4.5-19.1,1.1c-5,5.6-4.5,14.1,1.1,19.1l119.6,106.9L60.8,350.95
			c-5.4,5.1-5.7,13.6-0.6,19.1c2.7,2.8,6.3,4.3,9.9,4.3c3.3,0,6.6-1.2,9.2-3.6l120.9-113.1l32.8,29.3c2.6,2.3,5.8,3.4,9,3.4
			c3.2,0,6.5-1.2,9-3.5l33.7-30.2l120.2,114.2c2.6,2.5,6,3.7,9.3,3.7c3.6,0,7.1-1.4,9.8-4.2c5.1-5.4,4.9-14-0.5-19.1L304.8,238.55z"
			/>
	</g>
</g>
</symbol>

<symbol id="user" viewBox="0 0 482.9 482.9">
<g>
	<g>
		<path d="M239.7,260.2c0.5,0,1,0,1.6,0c0.2,0,0.4,0,0.6,0c0.3,0,0.7,0,1,0c29.3-0.5,53-10.8,70.5-30.5
			c38.5-43.4,32.1-117.8,31.4-124.9c-2.5-53.3-27.7-78.8-48.5-90.7C280.8,5.2,262.7,0.4,242.5,0h-0.7c-0.1,0-0.3,0-0.4,0h-0.6
			c-11.1,0-32.9,1.8-53.8,13.7c-21,11.9-46.6,37.4-49.1,91.1c-0.7,7.1-7.1,81.5,31.4,124.9C186.7,249.4,210.4,259.7,239.7,260.2z
			 M164.6,107.3c0-0.3,0.1-0.6,0.1-0.8c3.3-71.7,54.2-79.4,76-79.4h0.4c0.2,0,0.5,0,0.8,0c27,0.6,72.9,11.6,76,79.4
			c0,0.3,0,0.6,0.1,0.8c0.1,0.7,7.1,68.7-24.7,104.5c-12.6,14.2-29.4,21.2-51.5,21.4c-0.2,0-0.3,0-0.5,0l0,0c-0.2,0-0.3,0-0.5,0
			c-22-0.2-38.9-7.2-51.4-21.4C157.7,176.2,164.5,107.9,164.6,107.3z"/>
		<path d="M446.8,383.6c0-0.1,0-0.2,0-0.3c0-0.8-0.1-1.6-0.1-2.5c-0.6-19.8-1.9-66.1-45.3-80.9c-0.3-0.1-0.7-0.2-1-0.3
			c-45.1-11.5-82.6-37.5-83-37.8c-6.1-4.3-14.5-2.8-18.8,3.3c-4.3,6.1-2.8,14.5,3.3,18.8c1.7,1.2,41.5,28.9,91.3,41.7
			c23.3,8.3,25.9,33.2,26.6,56c0,0.9,0,1.7,0.1,2.5c0.1,9-0.5,22.9-2.1,30.9c-16.2,9.2-79.7,41-176.3,41
			c-96.2,0-160.1-31.9-176.4-41.1c-1.6-8-2.3-21.9-2.1-30.9c0-0.8,0.1-1.6,0.1-2.5c0.7-22.8,3.3-47.7,26.6-56
			c49.8-12.8,89.6-40.6,91.3-41.7c6.1-4.3,7.6-12.7,3.3-18.8c-4.3-6.1-12.7-7.6-18.8-3.3c-0.4,0.3-37.7,26.3-83,37.8
			c-0.4,0.1-0.7,0.2-1,0.3c-43.4,14.9-44.7,61.2-45.3,80.9c0,0.9,0,1.7-0.1,2.5c0,0.1,0,0.2,0,0.3c-0.1,5.2-0.2,31.9,5.1,45.3
			c1,2.6,2.8,4.8,5.2,6.3c3,2,74.9,47.8,195.2,47.8s192.2-45.9,195.2-47.8c2.3-1.5,4.2-3.7,5.2-6.3
			C447,415.5,446.9,388.8,446.8,383.6z"/>
	</g>
</g>
</symbol>

<symbol id="search" viewBox="0 0 512 512">
  <g>
    <path d="M495,466.2L377.2,348.4c29.2-35.6,46.8-81.2,46.8-130.9C424,103.5,331.5,11,217.5,11C103.4,11,11,103.5,11,217.5   S103.4,424,217.5,424c49.7,0,95.2-17.5,130.8-46.7L466.1,495c8,8,20.9,8,28.9,0C503,487.1,503,474.1,495,466.2z M217.5,382.9   C126.2,382.9,52,308.7,52,217.5S126.2,52,217.5,52C308.7,52,383,126.3,383,217.5S308.7,382.9,217.5,382.9z"/>
  </g>
</symbol>


</svg>